<?xml version="1.0" encoding="UTF-8" standalone="no"?>
<!-- Created with Inkscape (http://www.inkscape.org/) -->

<svg
   width="115.96569mm"
   height="115.96569mm"
   viewBox="0 0 115.96569 115.96569"
   version="1.1"
   id="svg981"
   xmlns="http://www.w3.org/2000/svg"
   xmlns:svg="http://www.w3.org/2000/svg">
  <defs
     id="defs978" />
  <g
     id="layer1"
     transform="translate(-45.348282,-134.80161)">
    <g
       aria-label="["
       id="text1593"
       style="font-size:73.3116px;line-height:1.25;font-family:MrRobot;-inkscape-font-specification:MrRobot;letter-spacing:2.38263px;word-spacing:0px;stroke-width:1.83279"
       transform="translate(18.18278,-17.875489)">
      <path
         d="m 35.712499,174.91001 h 16.49511 v 5.35174 H 42.090608 v 60.26214 h 10.117001 v 5.35174 h -16.49511 z"
         style="font-family:Ubuntu;-inkscape-font-specification:'Ubuntu, Normal'"
         id="path4265" />
    </g>
    <g
       aria-label="]"
       id="text3041"
       style="font-size:73.3116px;line-height:1.25;font-family:MrRobot;-inkscape-font-specification:MrRobot;letter-spacing:2.38263px;word-spacing:0px;stroke-width:1.83279"
       transform="translate(18.182768,-17.875489)">
      <path
         d="m 134.5842,246.40987 h -16.49511 v -5.35174 h 10.11701 v -60.26214 h -10.11701 v -5.35174 h 16.49511 z"
         style="font-family:Ubuntu;-inkscape-font-specification:'Ubuntu, Normal'"
         id="path4268" />
    </g>
    <g
       id="g9315"
       transform="matrix(1.112203,0,0,1.112203,15.733858,3.5600092)">
      <path
         id="path868"
         style="fill:#3088d4;fill-opacity:1;stroke-width:0.789921"
         d="m 297.35742,536.9082 c -4.8482,0.0396 -9.65943,0.16954 -14.38867,0.38672 31.16639,16.49193 52.40234,49.24099 52.40234,86.96094 h -17.88086 c 0,-44.43972 -36.00754,-80.44727 -80.44726,-80.44727 v -0.0137 c -3.45374,1.02244 -6.61805,2.16693 -9.41016,3.44922 0,0 -30.73047,13.74643 -30.73047,60.64844 0,10.74002 -0.20929,23.58278 0.13086,37.20117 1.11594,45.86759 8.40845,91.07228 50.81641,102.29687 19.55337,5.17546 36.34273,6.2588 49.86328,5.51563 24.51918,-1.35938 38.2832,-8.75 38.2832,-8.75 L 335.1875,726.3652 c 0,0 -17.52316,5.52485 -37.20117,4.85157 -19.49629,-0.66864 -40.07719,-2.10233 -43.23047,-26.03907 -0.2912,-2.10258 -0.4375,-4.34975 -0.4375,-6.71093 0,0 19.13978,4.6778 43.39453,5.78906 14.83102,0.68028 28.73895,-0.86913 42.86523,-2.55469 27.09003,-3.23482 50.678,-19.9262 53.64258,-35.17773 4.67108,-24.02529 4.28516,-58.63086 4.28516,-58.63086 0,-46.90201 -30.73047,-60.64844 -30.73047,-60.64844 -15.49382,-7.11617 -42.09923,-10.10992 -69.74023,-10.33594 z m -60.31445,24.7793 c 34.54926,0 62.56836,27.99989 62.56836,62.56836 h -17.87891 c 0,-24.67805 -20.0114,-44.68945 -44.68945,-44.68945 z m 11.17578,40.21484 c 6.16471,0 11.17773,4.99379 11.17773,11.17774 0,6.18391 -5.01302,11.17578 -11.17773,11.17578 -6.18391,0 -11.17578,-5.01107 -11.17578,-11.17578 0,-6.16475 4.99187,-11.17774 11.17578,-11.17774 z"
         transform="scale(0.26458333)" />
      <path
         d="m 65.674692,159.25329 c -1.63616,0 -2.95729,1.3262 -2.95729,2.95729 0,1.63108 1.32113,2.95728 2.95729,2.95728 1.63108,0 2.95728,-1.32112 2.95728,-2.95728 0,-1.63617 -1.3262,-2.95729 -2.95728,-2.95729 z m -2.95729,-20.10142 v 4.73064 c 11.75801,0 21.28535,9.52734 21.28535,21.28535 h 4.73064 c 0,-14.36977 -11.64622,-26.01599 -26.01599,-26.01599 z m 0,9.46129 v 4.73064 c 6.5294,0 11.82406,5.29466 11.82406,11.82406 h 4.73065 c 0,-9.14624 -7.41355,-16.5547 -16.55471,-16.5547 z"
         id="path7065"
         style="fill:#ffffff;stroke-width:0.0508124" />
    </g>
  </g>
</svg>
